<svg xmlns="http://www.w3.org/2000/svg" version="1.1" xmlns:xlink="http://www.w3.org/1999/xlink" xmlns:svgjs="http://svgjs.dev/svgjs" width="1300" height="550" preserveAspectRatio="none" viewBox="0 0 1300 550"><g mask="url(&quot;#SvgjsMask1005&quot;)" fill="none"><path d="M408.682,649.423C452,651.321,493.579,626.793,513.53,588.295C532.18,552.307,518.971,510.891,498.649,475.819C478.398,440.87,449.064,408.259,408.682,407.347C367.041,406.407,330.678,434.673,311.394,471.592C293.462,505.921,300.036,545.778,318.625,579.756C338.148,615.443,368.043,647.642,408.682,649.423" fill="rgba(188, 82, 116, 1)" class="triangle-float2"></path><path d="M1222.528,372.428C1270.559,375.403,1317.941,352.419,1342.388,310.968C1367.199,268.902,1367.025,214.563,1339.382,174.301C1314.54,138.119,1266.405,135.352,1222.528,136.396C1181.108,137.381,1136.229,144.107,1114.923,179.641C1093.165,215.928,1105.272,260.614,1125.893,297.559C1147.179,335.695,1178.938,369.728,1222.528,372.428" fill="rgba(188, 82, 116, 1)" class="triangle-float3"></path><path d="M1061.9193701444951 450.6640350896531L974.9690031946823 346.8398372325022 932.5445360844215 457.35935257690437z" fill="rgba(188, 82, 116, 1)" class="triangle-float1"></path><path d="M360.17,150.08C384.822,150.619,410.91,143.822,423.489,122.614C436.269,101.067,431.068,74.038,417.92,52.714C405.467,32.517,383.896,20.143,360.17,19.92C336.036,19.694,312.727,30.797,300.512,51.613C288.155,72.67,288.823,99.063,301.474,119.944C313.688,140.104,336.604,149.564,360.17,150.08" fill="rgba(188, 82, 116, 1)" class="triangle-float3"></path><path d="M98.27096664449391 278.67391996839336L13.035471895259647 263.64460253006865-1.9938455430650492 348.88009727930296 83.24164920616921 363.9094147176276z" fill="rgba(188, 82, 116, 1)" class="triangle-float2"></path><path d="M-92.84465458860154 287.6670038102594L58.983832168773034 309.0051060707418-71.50655232811914 135.83851705288484z" fill="rgba(188, 82, 116, 1)" class="triangle-float3"></path><path d="M110.83713231966455 553.2863520499179L62.3366604424897 420.03240073448615-70.91729087294205 468.532872611661-22.4168189957672 601.7868239270928z" fill="rgba(188, 82, 116, 1)" class="triangle-float3"></path><path d="M119.80058207925032 212.86029653630305L103.56342141242703 96.52252258350315 21.556935939127555 158.3188418466039z" fill="rgba(188, 82, 116, 1)" class="triangle-float3"></path><path d="M269.8791422787909 630.6427596355462L422.6674330676351 580.99883460449 373.02350803657885 428.2105438156457 220.23521724773462 477.85446884670193z" fill="rgba(188, 82, 116, 1)" class="triangle-float1"></path><path d="M-37.92 226.47 a179.94 179.94 0 1 0 359.88 0 a179.94 179.94 0 1 0 -359.88 0z" fill="rgba(188, 82, 116, 1)" class="triangle-float2"></path><path d="M604.521,191.685C631.551,192.714,652.405,169.45,664.219,145.116C674.552,123.834,670.452,99.892,659.189,79.087C647.227,56.99,629.582,36.655,604.521,34.839C576.489,32.808,546.603,44.826,534.166,70.03C522.612,93.445,539.136,118.249,552.208,140.852C565.254,163.411,578.48,190.694,604.521,191.685" fill="rgba(188, 82, 116, 1)" class="triangle-float2"></path></g><defs><mask id="SvgjsMask1005"><rect width="1300" height="550" fill="#ffffff"></rect></mask><style>
                @keyframes float1 {
                    0%{transform: translate(0, 0)}
                    50%{transform: translate(-10px, 0)}
                    100%{transform: translate(0, 0)}
                }

                .triangle-float1 {
                    animation: float1 5s infinite;
                }

                @keyframes float2 {
                    0%{transform: translate(0, 0)}
                    50%{transform: translate(-5px, -5px)}
                    100%{transform: translate(0, 0)}
                }

                .triangle-float2 {
                    animation: float2 4s infinite;
                }

                @keyframes float3 {
                    0%{transform: translate(0, 0)}
                    50%{transform: translate(0, -10px)}
                    100%{transform: translate(0, 0)}
                }

                .triangle-float3 {
                    animation: float3 6s infinite;
                }
            </style></defs></svg>