<svg xmlns="http://www.w3.org/2000/svg" version="1.1" xmlns:xlink="http://www.w3.org/1999/xlink" xmlns:svgjs="http://svgjs.dev/svgjs" width="1440" height="560" preserveAspectRatio="none" viewBox="0 0 1440 560"><g mask="url(&quot;#SvgjsMask1092&quot;)" fill="none"><rect width="1440" height="560" x="0" y="0" fill="url(&quot;#SvgjsLinearGradient1093&quot;)"></rect><path d="M1440 0L845.76 0L1440 177.35z" fill="rgba(255, 255, 255, .1)"></path><path d="M845.76 0L1440 177.35L1440 319.02L578.21 0z" fill="rgba(255, 255, 255, .075)"></path><path d="M578.21 0L1440 319.02L1440 342.93L498.92 0z" fill="rgba(255, 255, 255, .05)"></path><path d="M498.9200000000001 0L1440 342.93L1440 399.99L201.19000000000005 0z" fill="rgba(255, 255, 255, .025)"></path><path d="M0 560L518.14 560L0 432.69z" fill="rgba(0, 0, 0, .1)"></path><path d="M0 432.69L518.14 560L547.11 560L0 195.78z" fill="rgba(0, 0, 0, .075)"></path><path d="M0 195.77999999999997L547.11 560L651.23 560L0 94.43999999999997z" fill="rgba(0, 0, 0, .05)"></path><path d="M0 94.43999999999994L651.23 560L882.47 560L0 80.48999999999994z" fill="rgba(0, 0, 0, .025)"></path></g><defs><mask id="SvgjsMask1092"><rect width="1440" height="560" fill="#ffffff"></rect></mask><linearGradient x1="15.28%" y1="-39.29%" x2="84.72%" y2="139.29%" gradientUnits="userSpaceOnUse" id="SvgjsLinearGradient1093"><stop stop-color="#0e2a47" offset="0"></stop><stop stop-color="rgba(255, 255, 255, 1)" offset="1"></stop></linearGradient></defs></svg>