<svg xmlns="http://www.w3.org/2000/svg" version="1.1" xmlns:xlink="http://www.w3.org/1999/xlink" xmlns:svgjs="http://svgjs.dev/svgjs" width="1440" height="560" preserveAspectRatio="none" viewBox="0 0 1440 560"><g mask="url(&quot;#SvgjsMask1001&quot;)" fill="none"><rect width="1440" height="560" x="0" y="0" fill="rgba(27, 100, 175, 1)"></rect><path d="M0,340.878C76.614,352.882,162.958,396.991,227.553,354.079C292.282,311.078,275.334,211.068,304.082,138.87C330.957,71.376,388.201,16.391,390.921,-56.206C393.876,-135.082,373.464,-219.236,319.661,-276.988C266.4,-334.159,183.368,-349.336,106.231,-361.791C36.302,-373.083,-34.52,-368.612,-101.289,-344.959C-165.567,-322.189,-229.731,-288.125,-265.542,-230.093C-299.49,-175.08,-277.832,-105.236,-288.557,-41.488C-299.639,24.382,-349.367,86.715,-329.572,150.51C-309.433,215.414,-244.764,255.305,-185.918,289.295C-129.076,322.128,-64.852,330.717,0,340.878" fill="#16508c"></path><path d="M1440 1158.871C1549.727 1143.845 1601.575 1016.2570000000001 1694.148 955.462 1785.392 895.539 1930.192 903.836 1977.867 805.636 2025.4070000000002 707.7139999999999 1934.415 598.883 1919.6190000000001 491.041 1904.691 382.23900000000003 1949.949 261.957 1890.594 169.558 1829.443 74.363 1715.841 19.559999999999945 1604.355 0.25900000000001455 1498.327-18.09699999999998 1399.181 39.208999999999946 1295.083 66.45800000000003 1187.242 94.68700000000001 1054.498 78.46199999999999 982.027 163.16500000000002 909.563 247.86 939.817 376.027 934.944 487.384 930.559 587.587 920.101 687.463 954.971 781.505 991.563 880.19 1053.733 967.153 1136.8029999999999 1031.784 1225.081 1100.467 1329.184 1174.046 1440 1158.871" fill="#2078d2"></path></g><defs><mask id="SvgjsMask1001"><rect width="1440" height="560" fill="#ffffff"></rect></mask></defs></svg>